<?xml version="1.0" standalone="no"?>
<!DOCTYPE svg PUBLIC "-//W3C//DTD SVG 20010904//EN"
 "http://www.w3.org/TR/2001/REC-SVG-20010904/DTD/svg10.dtd">
<svg version="1.0" xmlns="http://www.w3.org/2000/svg"
 width="330.000000pt" height="330.000000pt" viewBox="0 0 330.000000 330.000000"
 preserveAspectRatio="xMidYMid meet">
<metadata>
Created by potrace 1.11, written by Peter Selinger 2001-2013
</metadata>
<g transform="translate(0.000000,330.000000) scale(0.100000,-0.100000)"
fill="#000000" stroke="none">
<path d="M1593 3234 c8 -14 -20 -27 -28 -13 -4 5 -9 7 -13 5 -4 -2 -29 -7 -57
-10 -27 -4 -65 -8 -83 -11 -18 -2 -41 -10 -50 -17 -13 -11 -14 -11 -7 1 6 11
5 12 -6 5 -8 -4 -23 -9 -34 -10 -11 -1 -32 -6 -47 -13 -16 -6 -28 -8 -28 -5 0
4 -6 1 -13 -5 -8 -6 -22 -12 -33 -14 -10 -2 -32 -10 -49 -17 -16 -7 -32 -14
-35 -15 -27 -8 -90 -42 -90 -48 0 -4 -4 -6 -9 -3 -5 3 -20 -3 -34 -14 -14 -11
-29 -20 -35 -20 -5 0 -21 -11 -35 -24 -14 -13 -28 -22 -30 -20 -2 3 -10 -2
-17 -11 -7 -8 -19 -15 -27 -15 -8 0 -11 -4 -8 -10 3 -5 2 -10 -2 -10 -5 0 -33
-22 -62 -50 -29 -27 -58 -50 -64 -50 -6 0 -8 -3 -5 -6 4 -3 -11 -23 -32 -44
-21 -21 -36 -41 -32 -44 3 -3 0 -6 -6 -6 -7 0 -12 -5 -12 -11 0 -7 -11 -22
-26 -35 -14 -13 -22 -24 -18 -24 4 0 -1 -9 -11 -20 -10 -11 -14 -20 -9 -20 5
0 2 -6 -7 -13 -16 -12 -33 -46 -31 -59 1 -5 -3 -8 -8 -8 -6 0 -10 -6 -10 -14
0 -7 -7 -19 -15 -26 -8 -7 -13 -16 -10 -20 2 -4 -4 -24 -15 -45 -11 -22 -23
-54 -26 -72 -3 -18 -10 -33 -14 -33 -5 0 -7 -8 -6 -17 2 -9 -3 -37 -10 -61 -8
-24 -11 -48 -8 -53 3 -5 -1 -9 -8 -9 -10 0 -10 -2 1 -9 10 -6 10 -10 1 -16 -6
-4 -9 -13 -6 -21 3 -7 0 -16 -6 -20 -7 -4 -6 -9 3 -15 8 -5 9 -9 4 -9 -15 0
-10 -229 5 -270 1 -3 2 -12 1 -21 -2 -13 11 -75 23 -114 2 -5 6 -23 10 -40 8
-33 37 -106 69 -175 12 -25 21 -47 22 -50 0 -3 9 -18 19 -35 11 -16 30 -47 43
-67 12 -21 23 -42 23 -48 0 -5 4 -10 8 -10 4 0 16 -14 27 -32 10 -18 29 -42
42 -54 13 -12 23 -24 23 -27 0 -10 113 -117 158 -149 23 -17 42 -35 42 -40 0
-5 5 -6 10 -3 6 3 10 2 10 -3 0 -5 12 -15 28 -23 15 -8 29 -16 32 -19 21 -21
72 -50 80 -45 6 3 10 1 10 -4 0 -6 7 -11 15 -11 8 0 15 -5 15 -12 0 -6 2 -9 5
-6 3 3 31 -5 62 -18 32 -12 61 -20 65 -18 4 3 8 0 8 -5 0 -6 3 -10 8 -10 4 1
10 0 15 -1 4 -1 11 -3 16 -4 5 0 38 -30 73 -66 90 -91 170 -160 186 -160 7 0
11 -4 8 -8 -3 -5 7 -15 22 -23 15 -8 29 -17 32 -20 8 -10 123 -83 163 -104 20
-11 37 -23 37 -28 0 -4 4 -5 10 -2 5 3 10 2 10 -2 0 -5 28 -22 63 -38 34 -16
70 -35 79 -43 9 -8 21 -11 27 -8 5 3 11 3 13 -1 3 -8 28 -21 108 -56 19 -9 38
-13 42 -11 4 3 8 1 8 -4 0 -4 23 -15 50 -22 28 -7 50 -18 50 -23 0 -6 3 -8 6
-5 3 4 22 0 41 -8 19 -9 38 -13 40 -10 3 3 14 1 25 -5 11 -6 27 -12 36 -14 9
-2 31 -8 49 -14 17 -5 34 -7 37 -3 3 3 6 -1 6 -9 0 -11 2 -11 10 1 7 11 10 12
10 2 0 -8 6 -12 12 -10 7 3 31 -1 53 -7 22 -6 52 -11 68 -10 15 1 27 -2 27 -8
0 -5 8 -3 17 4 11 10 14 10 9 2 -5 -10 6 -13 46 -14 29 -1 57 -1 62 0 5 1 13
-4 17 -11 5 -7 9 -8 9 -3 0 6 9 11 20 12 12 1 18 -3 14 -8 -3 -6 4 -5 15 3 18
11 23 11 31 -2 5 -8 10 -10 11 -5 0 6 2 20 3 33 3 28 -6 34 -58 39 -114 10
-132 13 -208 36 -26 8 -49 12 -52 9 -4 -3 -6 0 -6 6 0 7 -11 12 -25 12 -14 0
-25 5 -25 10 0 6 -9 10 -20 10 -11 0 -20 5 -20 10 0 6 -3 9 -7 8 -12 -2 -44
13 -100 49 -29 18 -55 33 -58 33 -3 0 -18 11 -33 25 -15 14 -30 25 -34 25 -12
0 -161 151 -188 190 -14 19 -32 44 -42 54 -10 11 -18 26 -18 33 0 7 -4 13 -8
13 -4 0 -16 23 -27 50 -11 27 -23 50 -26 50 -4 0 -6 8 -4 18 1 9 10 16 19 16
9 -1 16 2 16 6 0 4 10 7 23 6 12 -1 28 5 36 12 7 7 19 11 27 8 7 -3 18 1 24 9
6 7 20 12 30 10 11 -2 24 4 30 13 5 9 10 13 10 9 0 -15 193 98 268 157 47 37
172 164 172 175 0 7 5 9 10 6 6 -3 10 0 10 8 0 8 7 17 15 21 8 3 15 11 15 17
0 6 10 21 23 33 12 12 23 28 25 36 2 7 11 19 20 27 9 7 13 13 9 13 -4 0 4 17
18 37 14 21 25 42 25 48 0 6 6 17 13 23 6 7 12 16 12 20 1 4 6 16 12 27 6 11
12 25 13 30 1 6 7 21 13 35 6 14 11 28 12 33 2 4 3 8 5 10 1 1 3 10 6 20 2 9
6 25 8 35 3 9 5 17 6 17 3 0 12 39 13 58 1 9 4 17 8 17 3 0 6 12 7 28 0 15 1
29 2 32 14 42 19 280 5 280 -5 0 -3 5 5 10 10 6 11 13 5 18 -6 4 -10 21 -9 37
0 17 -4 36 -9 42 -5 7 -7 20 -3 28 3 8 1 15 -5 15 -6 0 -7 5 -4 10 3 6 3 16
-2 23 -4 6 -8 20 -9 30 -1 9 -3 19 -4 22 -1 3 -3 8 -4 13 -1 4 -4 12 -7 17 -8
13 -23 68 -21 78 1 4 -3 7 -8 7 -5 0 -9 3 -8 8 2 11 -31 80 -42 87 -5 3 -10
13 -10 21 0 9 -22 49 -50 90 -27 41 -50 79 -50 85 0 6 -4 7 -10 4 -5 -3 -10
-2 -10 3 0 12 -140 155 -187 192 -61 48 -165 115 -175 112 -5 -1 -8 2 -8 6 0
9 -110 58 -122 54 -5 -1 -8 2 -8 8 0 5 -8 10 -18 10 -10 0 -22 4 -28 8 -5 5
-29 14 -54 21 -25 8 -57 18 -72 23 -15 6 -31 7 -37 4 -5 -4 -12 -2 -16 4 -3 5
-22 10 -41 10 -20 0 -34 5 -34 13 0 8 -4 7 -10 -3 -5 -8 -10 -10 -10 -4 0 5
-18 10 -40 9 -22 -1 -40 2 -40 6 0 9 -27 6 -36 -4 -4 -4 -13 -2 -21 4 -7 6
-13 8 -13 4 0 -4 -8 -1 -17 6 -12 10 -15 10 -9 1 6 -9 0 -11 -24 -7 -24 4 -30
2 -24 -7 4 -7 -3 -4 -16 7 -13 11 -20 15 -17 9z"/>
</g>
</svg>
