<?xml version="1.0" standalone="no"?>
<!DOCTYPE svg PUBLIC "-//W3C//DTD SVG 20010904//EN"
 "http://www.w3.org/TR/2001/REC-SVG-20010904/DTD/svg10.dtd">
<svg version="1.0" xmlns="http://www.w3.org/2000/svg"
 width="380.000000pt" height="380.000000pt" viewBox="0 0 380.000000 380.000000"
 preserveAspectRatio="xMidYMid meet">
<metadata>
Created by potrace 1.11, written by Peter Selinger 2001-2013
</metadata>
<g transform="translate(0.000000,380.000000) scale(0.100000,-0.100000)"
fill="#000000" stroke="none">
<path d="M1795 3552 c5 -9 -2 -12 -27 -10 -19 1 -39 -2 -46 -6 -7 -4 -12 -2
-12 4 0 6 -5 8 -11 4 -6 -3 -32 -7 -58 -8 -26 -1 -51 -5 -56 -8 -6 -3 -18 -4
-27 -3 -10 2 -18 -1 -18 -5 0 -5 -11 -7 -25 -4 -14 2 -25 1 -25 -4 0 -5 -10
-8 -22 -7 -13 1 -27 0 -33 -4 -5 -3 -13 -6 -17 -7 -5 -1 -9 -2 -10 -4 -2 -1
-11 -3 -20 -6 -10 -2 -26 -6 -35 -8 -10 -3 -19 -5 -20 -6 -2 -2 -6 -3 -10 -4
-5 -1 -18 -7 -30 -14 -13 -7 -23 -9 -23 -5 0 4 -5 2 -12 -5 -7 -7 -20 -12 -30
-12 -10 0 -18 -4 -18 -10 0 -5 -9 -10 -20 -10 -11 0 -20 -5 -20 -11 0 -5 -4
-7 -10 -4 -5 3 -10 1 -10 -5 0 -6 -4 -9 -9 -5 -5 3 -12 1 -16 -5 -4 -6 -11 -8
-16 -5 -5 4 -9 2 -9 -4 0 -5 -20 -20 -45 -32 -25 -12 -45 -26 -45 -31 0 -4 -4
-8 -10 -8 -11 0 -41 -23 -71 -54 -11 -11 -19 -17 -19 -13 0 8 -129 -120 -170
-169 -14 -16 -24 -32 -22 -36 1 -5 -2 -8 -7 -8 -5 0 -29 -31 -54 -70 -24 -38
-48 -66 -52 -62 -5 4 -5 1 -1 -6 4 -7 0 -24 -9 -38 -9 -13 -13 -30 -9 -36 4
-7 3 -8 -4 -4 -11 6 -16 -6 -13 -26 0 -5 -4 -8 -9 -8 -6 0 -10 -9 -10 -20 0
-11 -5 -20 -12 -20 -6 0 -9 -3 -5 -6 3 -4 0 -22 -8 -41 -8 -20 -15 -44 -15
-54 0 -11 -4 -19 -9 -19 -6 0 -8 -9 -6 -20 2 -11 0 -22 -5 -25 -5 -3 -7 -14
-5 -25 2 -11 0 -20 -4 -20 -4 0 -7 -18 -7 -39 1 -22 -2 -37 -6 -35 -10 6 -9
17 -11 -143 -1 -73 1 -133 6 -133 4 0 3 -9 -2 -19 -8 -15 -7 -20 5 -25 13 -5
14 -9 4 -21 -7 -8 -8 -15 -3 -15 5 0 8 -16 8 -35 -1 -19 2 -35 6 -35 4 0 8 -8
8 -18 1 -31 7 -61 14 -68 4 -4 7 -16 7 -26 0 -10 4 -18 8 -18 4 0 9 -12 10
-27 1 -15 5 -29 10 -32 4 -3 9 -15 10 -26 2 -11 7 -22 10 -25 4 -3 8 -12 10
-20 2 -8 8 -17 13 -18 5 -2 6 -8 3 -13 -3 -6 1 -18 9 -27 16 -19 31 -53 29
-64 -1 -5 1 -8 6 -8 4 0 16 -17 27 -37 11 -21 22 -40 25 -43 3 -3 17 -21 30
-40 32 -46 50 -68 78 -97 12 -13 22 -25 22 -27 0 -9 89 -93 94 -88 3 3 6 -2 6
-12 0 -9 4 -15 8 -12 5 3 15 -3 24 -12 31 -35 148 -118 161 -114 4 1 7 -2 7
-8 0 -5 7 -10 15 -10 8 0 15 -3 15 -7 0 -9 49 -33 67 -33 7 0 13 -5 13 -10 0
-6 3 -9 8 -9 4 1 9 0 12 -1 9 -3 45 -11 57 -12 7 -1 11 -6 10 -11 -1 -5 16
-11 38 -14 22 -2 42 -8 43 -14 2 -5 8 -7 13 -3 5 3 9 0 9 -6 0 -6 5 -8 10 -5
6 3 10 1 10 -6 0 -6 24 -34 53 -62 28 -27 51 -54 49 -59 -1 -5 2 -7 8 -3 5 3
10 1 10 -4 0 -6 4 -11 10 -11 5 0 22 -12 39 -28 16 -15 44 -38 62 -52 18 -14
38 -31 46 -38 7 -7 13 -10 13 -5 0 4 6 1 13 -8 7 -8 31 -26 55 -39 23 -13 42
-28 42 -32 0 -5 4 -7 9 -3 6 3 13 0 18 -7 11 -18 69 -49 77 -41 3 3 6 1 6 -5
0 -6 21 -21 48 -34 26 -13 50 -27 54 -33 4 -5 8 -7 8 -2 0 4 18 -4 40 -18 22
-14 46 -25 55 -25 8 0 15 -5 15 -11 0 -5 4 -8 9 -4 5 3 12 1 16 -5 3 -5 15
-10 26 -10 13 0 18 -4 13 -12 -4 -6 -3 -8 3 -5 6 4 28 -2 49 -12 21 -11 42
-17 46 -14 5 2 8 -1 8 -6 0 -6 3 -10 8 -9 4 1 23 -4 42 -11 19 -8 38 -13 43
-12 4 0 7 -3 7 -9 0 -5 7 -7 16 -3 9 3 19 1 23 -5 3 -6 20 -13 36 -16 17 -2
30 -5 30 -6 0 -1 11 -3 25 -6 14 -2 32 -7 40 -11 8 -3 24 -8 35 -10 11 -2 27
-6 35 -9 17 -7 76 -16 103 -15 9 0 17 -3 17 -7 0 -4 15 -8 33 -9 17 0 55 -4
82 -8 28 -4 63 -7 78 -6 21 1 26 -2 21 -11 -6 -10 -5 -11 7 -1 11 9 19 9 26 2
8 -8 13 -7 18 2 6 8 4 10 -5 4 -8 -5 -11 -4 -6 3 7 11 31 7 52 -9 7 -6 14 4
21 26 9 28 8 35 -3 36 -8 1 -22 2 -31 3 -10 1 -24 5 -30 9 -8 5 -13 3 -13 -5
0 -8 -3 -9 -8 -3 -6 10 -50 17 -109 19 -13 1 -23 4 -23 9 0 4 -11 7 -25 7 -14
0 -25 6 -25 13 0 9 -3 8 -9 -2 -6 -9 -11 -10 -15 -2 -4 6 -16 11 -27 11 -10 0
-19 4 -19 8 0 4 -10 9 -22 9 -13 1 -24 7 -26 13 -2 5 -10 10 -17 10 -21 0 -85
32 -85 42 0 5 -4 7 -9 3 -5 -3 -15 0 -23 7 -7 7 -20 14 -28 16 -8 2 -19 10
-23 18 -4 8 -12 14 -18 14 -10 0 -24 10 -60 43 -13 11 -19 13 -20 5 0 -7 -5
-3 -11 10 -6 12 -15 22 -19 22 -11 0 -149 140 -149 151 0 5 -4 9 -10 9 -5 0
-10 7 -10 15 0 7 -6 18 -13 22 -15 10 -59 77 -78 121 -7 17 -16 32 -19 32 -3
0 -6 8 -7 18 -1 9 -3 24 -5 32 -2 9 4 14 15 14 9 -1 17 1 17 5 0 7 7 9 50 13
11 1 20 6 20 11 0 5 7 7 15 3 8 -3 15 -1 15 4 0 6 3 9 8 9 4 -1 10 0 15 1 4 1
10 3 15 4 4 1 24 10 46 19 21 9 41 17 43 17 3 0 17 9 33 20 15 11 30 17 34 13
3 -3 6 0 6 7 0 7 3 11 6 7 6 -6 13 -1 53 33 10 8 24 16 32 18 7 2 17 9 21 15
4 7 13 12 20 12 7 1 12 6 10 13 -2 10 13 17 21 10 1 -2 16 11 32 27 17 17 45
43 63 58 19 15 31 27 28 27 -4 0 13 20 38 44 24 25 42 47 38 50 -3 3 0 6 6 6
6 0 25 22 43 50 18 27 36 50 41 50 4 0 8 7 8 15 0 8 9 24 20 35 11 11 21 23
21 28 3 17 13 38 25 52 7 8 13 18 14 22 0 4 9 28 20 53 11 25 19 46 18 48 -1
1 5 13 12 27 8 14 13 31 12 38 -2 6 2 12 8 12 6 0 10 6 9 13 -3 26 1 48 10 43
4 -3 7 6 5 19 -1 14 1 25 6 25 4 0 6 9 3 20 -3 11 -1 20 5 20 6 0 9 10 7 21
-2 12 0 31 6 41 9 16 8 19 -3 12 -11 -6 -11 -5 1 9 7 9 11 24 7 32 -3 8 -2 15
2 15 7 0 8 241 1 270 -2 8 -8 18 -14 22 -6 5 -5 8 3 8 8 0 10 5 6 12 -5 7 -9
28 -11 46 -1 18 -7 41 -13 51 -5 10 -11 33 -12 50 -1 17 -7 31 -12 31 -5 0 -6
3 -3 7 4 3 2 12 -4 20 -6 7 -9 13 -5 13 4 0 0 13 -9 30 -8 16 -15 31 -15 32
-1 18 -14 48 -22 48 -5 0 -7 4 -3 9 3 5 1 12 -5 16 -6 4 -7 11 -4 17 4 7 2 8
-4 4 -7 -4 -12 -4 -13 1 -2 28 -9 47 -23 62 -9 10 -16 23 -16 29 0 7 -4 12
-10 12 -5 0 -10 7 -10 15 0 8 -4 15 -9 15 -5 0 -12 8 -15 18 -7 20 -28 45
-129 154 -34 38 -68 68 -74 68 -7 0 -13 6 -13 14 0 8 -8 17 -17 20 -10 3 -34
19 -53 36 -19 16 -36 28 -38 26 -2 -2 -15 7 -29 20 -14 13 -31 24 -38 24 -7 0
-18 7 -25 15 -7 8 -16 12 -21 10 -4 -3 -11 0 -16 7 -4 7 -12 13 -18 14 -23 3
-55 17 -55 25 0 5 -11 9 -25 9 -14 0 -25 4 -25 8 0 8 -119 47 -132 44 -5 -1
-8 4 -8 10 0 9 -4 8 -10 -2 -8 -12 -10 -12 -10 5 0 15 -3 16 -9 7 -7 -11 -11
-10 -24 2 -10 10 -18 12 -22 6 -4 -6 -12 -7 -18 -3 -15 9 -36 15 -64 17 -13 0
-23 6 -23 11 0 6 -5 3 -10 -5 -5 -8 -10 -10 -10 -5 0 6 -17 10 -38 10 -20 0
-41 2 -47 4 -19 10 -45 8 -45 -3 0 -6 -5 -4 -10 4 -5 8 -10 11 -10 5 0 -5 -5
-3 -10 5 -8 13 -10 12 -10 -4 0 -20 0 -20 -16 0 -8 10 -13 13 -9 6z"/>
</g>
</svg>
